<?xml version="1.0" standalone="no"?>
<!DOCTYPE svg PUBLIC "-//W3C//DTD SVG 20010904//EN"
 "http://www.w3.org/TR/2001/REC-SVG-20010904/DTD/svg10.dtd">
<svg version="1.0" xmlns="http://www.w3.org/2000/svg"
 width="470.000000pt" height="150.000000pt" viewBox="0 0 470.000000 150.000000"
 preserveAspectRatio="xMidYMid meet">

<g transform="translate(0.000000,150.000000) scale(0.100000,-0.100000)"
fill="#F3F4F6" stroke="none">
<path d="M0 750 l0 -750 2350 0 2350 0 0 750 0 750 -2350 0 -2350 0 0 -750z
m1070 325 l0 -75 -380 0 -380 0 0 -230 0 -230 380 0 380 0 0 -75 0 -75 -460 0
-460 0 0 380 0 380 460 0 460 0 0 -75z m1060 -305 l0 -380 -455 0 -455 0 0
380 0 380 455 0 455 0 0 -380z m1060 -145 l0 -525 -455 0 -455 0 0 70 0 70
380 0 380 0 0 75 0 75 -380 0 -380 0 0 380 0 380 455 0 455 0 0 -525z m300
145 l0 -380 -75 0 -75 0 0 380 0 380 75 0 75 0 0 -380z m1060 0 l0 -380 -380
0 -380 0 0 -145 0 -145 -75 0 -75 0 0 525 0 525 455 0 455 0 0 -380z"/>
<path d="M1370 770 l0 -230 305 0 305 0 0 230 0 230 -305 0 -305 0 0 -230z"/>
<path d="M2430 770 l0 -230 305 0 305 0 0 230 0 230 -305 0 -305 0 0 -230z"/>
<path d="M3790 770 l0 -230 305 0 305 0 0 230 0 230 -305 0 -305 0 0 -230z"/>
</g>
</svg>
